<svg width="16" height="16" viewBox="0 0 16 16" fill="none" xmlns="http://www.w3.org/2000/svg">
<g id="2) Extras/l/lock">
<path id="Vector" fill-rule="evenodd" clip-rule="evenodd" d="M13.5 6H12.5V4.54375C12.5 2.05625 10.5 0.00624919 8.0125 -8.07758e-07C5.525 -0.00625081 3.5 2.01562 3.5 4.5V6H2.5C1.67188 6 1 6.67187 1 7.5V14.5C1 15.3281 1.67188 16 2.5 16H13.5C14.3281 16 15 15.3281 15 14.5V7.5C15 6.67187 14.3281 6 13.5 6ZM5 4.5C5 2.84687 6.34688 1.5 8 1.5C9.65312 1.5 11 2.84687 11 4.5V6H5V4.5ZM13.5 14.5H2.5V7.5H13.5V14.5Z" fill="#5B5E65"/>
</g>
</svg>
